<svg ng-attr-width="{{ ::$ctrl.seatWidth * 1.2 }}" xmlns="http://www.w3.org/2000/svg" ng-attr-view_box="0 0 {{ ::$ctrl.viewBoxW }} {{ ::$ctrl.viewBoxH }}" width="26.4" viewBox="0 0 25 21">
        <g>
            <rect ng-attr-x="{{ ::$ctrl.strokeWidth / 2 + 1 }}" ng-attr-y="{{ ::$ctrl.strokeWidth / 2 }}" ng-attr-width="{{ ::$ctrl.seatWidth }}" ng-attr-height="{{ ::$ctrl.seatHeight }}" rx="3" ry="3" ng-attr-fill="{{ $ctrl.fillColor }}" stroke="#69ac38" stroke-width="1" x="1.5" y="0.5" width="22" height="19" fill="#69ac38"></rect>

            <!---->

            <!----><!----><polygon points="13.85 1.27 12.58 0 4.59 7.99 1.27 4.66 0 5.93 4.59 10.52 4.59 10.52 4.59 10.52 13.85 1.27" fill="#fff" ng-if="$ctrl.seat.isSelected" ng-repeat="seat in ::$ctrl.seatCountArray track by $index" ng-attr-transform="
                    translate({{ ($ctrl.viewBoxW / $ctrl.seatCount * $index) + ((($ctrl.viewBoxW / $ctrl.seatCount) - $ctrl.tickWidth) / 2) }}, 2.5)" transform="
                    translate(5.575, 2.5)"></polygon><!----><!---->

            <!----><!----><!---->
        </g>
        <path ng-attr-d="
            M{{ ::$ctrl.seatWidth + 1 + ($ctrl.strokeWidth / 2) }},{{ ::$ctrl.armRestStartY }}
            a1,1,0,0,1,1,1
            V{{ ::$ctrl.seatHeight }}
            a1,1,0,0,1-1,1
            h-{{ ::$ctrl.seatWidth }}
            a1,1,0,0,1-1-1
            V{{ ::$ctrl.armRestStartY + 1 }}
            a1,1,0,0,1,1-1
            h1
            a1,1,0,0,1,1,1
            v{{ ::$ctrl.seatCushionY }}
            a1,1,0,0,0,1,1
            h{{ ::$ctrl.seatWidth - (3 * 2) }}
            a1,1,0,0,0,1-1
            V{{ ::$ctrl.armRestStartY + 1 }}
            a1,1,0,0,1,1-1Z" fill="#000" ng-attr-stroke="{{ $ctrl.strokeColor }}" stroke-width="1" stroke="#69ac38" d="
            M23.5,7
            a1,1,0,0,1,1,1
            V19
            a1,1,0,0,1-1,1
            h-22
            a1,1,0,0,1-1-1
            V8
            a1,1,0,0,1,1-1
            h1
            a1,1,0,0,1,1,1
            v6.83
            a1,1,0,0,0,1,1
            h16
            a1,1,0,0,0,1-1
            V8
            a1,1,0,0,1,1-1Z"></path>
    </svg>